<svg width="1495" height="654" viewBox="0 0 1495 654" fill="none" xmlns="http://www.w3.org/2000/svg">
<rect x="-424" width="1918.48" height="653.734" rx="5"/>
<rect x="-424" width="1918.48" height="653.734" rx="5" fill="url(#paint0_linear)"/>
<path d="M137.608 335.624C137.608 320.584 115.4 324.104 115.4 316.296C115.4 313.48 117.384 312.136 120.008 312.2C122.952 312.264 125 313.992 125.192 316.872H137.032C136.584 308.296 129.992 303.432 120.2 303.432C110.792 303.432 103.816 308.168 103.816 316.68C103.688 332.616 126.152 328.136 126.152 336.456C126.152 339.08 124.104 340.68 120.904 340.68C117.832 340.68 115.656 339.016 115.336 335.56H103.688C104.008 344.648 111.56 349.448 121.224 349.448C131.72 349.448 137.608 343.176 137.608 335.624ZM180.107 313.288H169.163V332.68C169.163 337.544 166.475 340.232 162.251 340.232C158.155 340.232 155.403 337.544 155.403 332.68V313.288H144.523V334.152C144.523 343.688 150.091 349.384 158.347 349.384C163.147 349.384 166.987 347.208 169.163 344.136V349H180.107V313.288ZM199.412 318.344V313.288H188.468V366.024H199.412V344.008C201.396 347.016 205.172 349.512 210.42 349.512C219.188 349.512 226.164 342.344 226.164 331.08C226.164 319.816 219.188 312.776 210.42 312.776C205.172 312.776 201.396 315.208 199.412 318.344ZM215.028 331.08C215.028 336.776 211.316 339.976 207.156 339.976C203.06 339.976 199.348 336.84 199.348 331.144C199.348 325.448 203.06 322.312 207.156 322.312C211.316 322.312 215.028 325.384 215.028 331.08ZM248.15 321.544C251.798 321.544 254.87 323.784 254.87 327.688H241.174C241.814 323.72 244.566 321.544 248.15 321.544ZM265.238 337.16H253.59C252.694 339.08 250.966 340.616 247.894 340.616C244.374 340.616 241.494 338.44 241.11 333.768H265.878C266.006 332.68 266.07 331.592 266.07 330.568C266.07 319.688 258.71 312.776 248.278 312.776C237.654 312.776 230.23 319.816 230.23 331.144C230.23 342.472 237.782 349.512 248.278 349.512C257.174 349.512 263.51 344.136 265.238 337.16ZM283.287 332.424C283.287 326.28 286.295 324.488 291.479 324.488H294.487V312.904C289.687 312.904 285.783 315.464 283.287 319.24V313.288H272.343V349H283.287V332.424ZM314.281 349H325.225V330.824H338.921V322.312H325.225V312.84H343.529V304.072H314.281V349ZM349.781 349H360.725V301.64H349.781V349ZM366.98 331.08C366.98 342.344 373.956 349.512 382.66 349.512C387.972 349.512 391.748 347.08 393.732 343.944V349H404.676V313.288H393.732V318.344C391.812 315.208 388.036 312.776 382.724 312.776C373.956 312.776 366.98 319.816 366.98 331.08ZM393.732 331.144C393.732 336.84 390.084 339.976 385.924 339.976C381.828 339.976 378.116 336.776 378.116 331.08C378.116 325.384 381.828 322.312 385.924 322.312C390.084 322.312 393.732 325.448 393.732 331.144ZM442.085 338.632C441.893 325.32 422.565 329.352 422.565 323.656C422.565 321.928 423.973 320.904 426.533 320.904C429.605 320.904 431.461 322.504 431.781 324.936H441.893C441.189 317.896 436.069 312.776 426.853 312.776C417.509 312.776 412.325 317.768 412.325 323.848C412.325 336.968 431.781 332.808 431.781 338.568C431.781 340.168 430.309 341.448 427.493 341.448C424.485 341.448 422.245 339.784 421.989 337.288H411.173C411.685 344.2 418.085 349.512 427.621 349.512C436.581 349.512 442.085 344.84 442.085 338.632ZM449.281 349H460.225V329.608C460.225 324.744 462.913 322.056 467.073 322.056C471.233 322.056 473.921 324.744 473.921 329.608V349H484.801V328.136C484.801 318.536 479.361 312.904 471.233 312.904C466.305 312.904 462.401 315.016 460.225 318.088V301.64H449.281V349ZM539.608 335.624C539.608 320.584 517.4 324.104 517.4 316.296C517.4 313.48 519.384 312.136 522.008 312.2C524.952 312.264 527 313.992 527.192 316.872H539.032C538.584 308.296 531.992 303.432 522.2 303.432C512.792 303.432 505.816 308.168 505.816 316.68C505.688 332.616 528.152 328.136 528.152 336.456C528.152 339.08 526.104 340.68 522.904 340.68C519.832 340.68 517.656 339.016 517.336 335.56H505.688C506.008 344.648 513.56 349.448 523.224 349.448C533.72 349.448 539.608 343.176 539.608 335.624ZM544.667 331.08C544.667 342.344 551.643 349.512 560.347 349.512C565.659 349.512 569.435 347.08 571.419 343.944V349H582.363V313.288H571.419V318.344C569.499 315.208 565.723 312.776 560.411 312.776C551.643 312.776 544.667 319.816 544.667 331.08ZM571.419 331.144C571.419 336.84 567.771 339.976 563.611 339.976C559.515 339.976 555.803 336.776 555.803 331.08C555.803 325.384 559.515 322.312 563.611 322.312C567.771 322.312 571.419 325.448 571.419 331.144ZM590.781 349H601.725V301.64H590.781V349ZM625.9 321.544C629.548 321.544 632.62 323.784 632.62 327.688H618.924C619.564 323.72 622.316 321.544 625.9 321.544ZM642.988 337.16H631.34C630.444 339.08 628.716 340.616 625.644 340.616C622.124 340.616 619.244 338.44 618.86 333.768H643.628C643.756 332.68 643.82 331.592 643.82 330.568C643.82 319.688 636.46 312.776 626.028 312.776C615.404 312.776 607.98 319.816 607.98 331.144C607.98 342.472 615.532 349.512 626.028 349.512C634.924 349.512 641.26 344.136 642.988 337.16ZM106.888 398.216V426.056H117.448C118.024 423.88 119.816 422.216 122.888 422.216C126.792 422.216 128.904 424.456 128.904 428.68C128.904 432.712 127.112 435.72 122.952 435.72C119.368 435.72 117.512 433.544 117.064 431.112H106.376C106.76 439.176 112.84 445 123.336 445C133.704 445 139.464 438.6 139.464 428.744C139.464 421.192 135.56 413.448 125.384 413.448C121.672 413.448 118.472 414.792 116.808 416.648V407.816H136.776V398.216H106.888ZM146.005 421C146.005 434.824 150.677 444.808 163.989 444.808C177.301 444.808 181.973 434.824 181.973 421C181.973 407.304 177.301 397.32 163.989 397.32C150.677 397.32 146.005 407.304 146.005 421ZM171.221 421C171.221 428.424 170.453 434.568 163.989 434.568C157.525 434.568 156.757 428.424 156.757 421C156.757 413.832 157.525 407.56 163.989 407.56C170.453 407.56 171.221 413.832 171.221 421ZM187.359 410.056C187.359 417.16 191.967 420.872 198.047 420.872C204.127 420.872 208.671 417.16 208.671 410.056C208.671 402.952 204.127 399.24 198.047 399.24C191.967 399.24 187.359 402.952 187.359 410.056ZM197.983 405.64C199.903 405.64 201.119 406.984 201.119 410.056C201.119 413.064 199.903 414.408 197.983 414.408C196.063 414.408 194.911 413.064 194.911 410.056C194.911 406.984 196.063 405.64 197.983 405.64ZM195.615 445H206.175L230.815 399.944H220.255L195.615 445ZM217.823 434.888C217.823 441.992 222.367 445.704 228.447 445.704C234.527 445.704 239.071 441.992 239.071 434.888C239.071 427.72 234.527 424.072 228.447 424.072C222.367 424.072 217.823 427.72 217.823 434.888ZM228.383 430.472C230.303 430.472 231.519 431.88 231.519 434.888C231.519 437.896 230.303 439.24 228.383 439.24C226.463 439.24 225.311 437.896 225.311 434.888C225.311 431.88 226.463 430.472 228.383 430.472ZM303.817 422.408C303.817 408.904 293.641 399.432 280.841 399.432C268.105 399.432 257.737 408.904 257.737 422.408C257.737 435.912 268.105 445.448 280.841 445.448C293.577 445.448 303.817 435.912 303.817 422.408ZM268.937 422.408C268.937 414.408 273.545 409.352 280.841 409.352C288.009 409.352 292.681 414.408 292.681 422.408C292.681 430.28 288.009 435.464 280.841 435.464C273.545 435.464 268.937 430.28 268.937 422.408ZM311.494 445H322.438V418.376H328.326V409.288H322.438V408.968C322.438 405.192 323.91 403.912 328.134 404.168V394.888C317.254 394.312 311.494 398.92 311.494 408.264V409.288H307.526V418.376H311.494V445ZM335.056 445H346V418.376H351.888V409.288H346V408.968C346 405.192 347.472 403.912 351.696 404.168V394.888C340.816 394.312 335.056 398.92 335.056 408.264V409.288H331.088V418.376H335.056V445Z" fill="white"/>
<defs>
<linearGradient id="paint0_linear" x1="535.239" y1="-477.607" x2="535.239" y2="653.734" gradientUnits="userSpaceOnUse">
<stop/>
<stop offset="1" stop-opacity="0"/>
</linearGradient>
</defs>
</svg>
